<svg xmlns:dc="http://purl.org/dc/elements/1.1/" xmlns:cc="http://creativecommons.org/ns#" xmlns:rdf="http://www.w3.org/1999/02/22-rdf-syntax-ns#" xmlns:svg="http://www.w3.org/2000/svg" xmlns="http://www.w3.org/2000/svg" version="1.1" height="66" width="172" style=""><rect id="backgroundrect" width="100%" height="100%" x="0" y="0" fill="none" stroke="none"/>
  <defs id="defs2"/>
  <metadata id="metadata5">
    <rdf:RDF>
      <cc:Work rdf:about="">
        <dc:format>image/svg+xml</dc:format>
        <dc:type rdf:resource="http://purl.org/dc/dcmitype/StillImage"/>
        <dc:title/>
      </cc:Work>
    </rdf:RDF>
  </metadata>
  
<g class="currentLayer" style=""><title>Layer 1</title><g id="layer1" class="">
    <path id="path77" d="m146.5696678729248,65.61846634033202 c-7.3742,-0.6750400000000002 -13.62074,-4.6171 -17.29596,-10.91512 c-0.45117,-0.77313 -1.23372,-2.61769 -1.73901,-4.09899 c-0.8409900000000001,-2.46547 -0.9201400000000001,-3.13721 -0.9356200000000001,-7.94073 c-0.014900000000000002,-4.62397 0.07660000000000002,-5.5290099999999995 0.77025,-7.61725 c1.33288,-4.01276 2.69938,-6.24221 5.6026,-9.1407 c3.21121,-3.20597 6.38242,-4.93148 10.91212,-5.93745 c9.56492,-2.12422 19.51375,1.5591599999999999 24.351210000000002,9.0156 c5.00698,7.7177500000000006 5.26965,18.46762 0.6403400000000001,26.20593 c-4.49295,7.51036 -12.62958,11.31449 -22.30593,10.42871 zm1.5917400000000002,-8.14354 c0.18551000000000004,-0.42464 0.6311400000000001,-0.7617200000000002 1.00699,-0.7617200000000002 c0.37584000000000006,0 0.82147,0.3370800000000001 1.00698,0.7617200000000002 c0.8684400000000001,1.98793 7.25888,-0.37729 10.13466,-3.75104 c2.58933,-3.03771 4.51633,-8.75478 3.37704,-10.01905 c-0.6702200000000001,-0.7437300000000001 -0.6740200000000002,-1.5143 -0.010200000000000002,-2.06757 c0.6378900000000002,-0.53166 0.39974000000000004,-2.63469 -0.6121700000000001,-5.4059800000000005 c-1.6608900000000002,-4.54861 -5.173,-7.7641 -9.85103,-9.01905 c-2.29343,-0.6152200000000001 -2.42781,-0.5936800000000001 -2.9358400000000002,0.47081000000000006 c-0.26263,0.5502900000000001 -0.71631,0.9309900000000001 -1.10945,0.9309900000000001 c-0.39315000000000005,0 -0.8468300000000001,-0.38070000000000004 -1.1094600000000001,-0.9309900000000001 c-0.51433,-1.07772 -0.40849,-1.05856 -2.59873,-0.47013 c-4.22866,1.13609 -7.6261,4.00251 -9.55516,8.06171 c-1.13704,2.39262 -1.8314400000000002,6.37336 -1.11176,6.37336 c0.47363,0 0.5142,1.57266 0.04800000000000001,1.862 c-0.4408200000000001,0.27359 -0.42651000000000006,2.02304 0.030500000000000006,3.72398 c1.07707,4.00915 3.7397,7.5114 7.06304,9.29028 c3.58506,1.9189500000000002 5.6648700000000005,2.2365 6.2266,0.9506800000000001 zm-0.09100000000000003,-12.49465 c-0.23046000000000003,-0.23144000000000003 -0.42754000000000003,-0.5807700000000001 -0.43795000000000006,-0.77628 c-0.010200000000000002,-0.19550000000000003 -1.75861,-1.6504 -3.8848700000000003,-3.2331 c-3.79553,-2.82523 -4.50651,-3.77293 -2.99445,-3.99154 c0.4313600000000001,-0.062300000000000015 2.07887,0.97119 4.50805,2.82808 l3.82825,2.92636 l4.53386,-4.77471 c2.5698600000000003,-2.70636 4.7983,-4.7747 5.1443,-4.7747 c1.5765799999999999,0 0.90192,1.12202 -3.3316,5.54069 c-2.38239,2.4866 -4.54079,4.96132 -4.79646,5.49936 c-0.51025,1.07387 -1.85771,1.4702899999999999 -2.56913,0.7558400000000002 zM2.111697872924804,64.93582634033203 c-0.41357000000000005,-0.20044000000000003 -1.058289,-0.99995 -1.432707,-1.77669 c-0.6666150000000002,-1.38291 -0.6807260000000002,-2.00999 -0.6788850000000002,-30.16627 c0.0014000000000000004,-18.79424 0.12286300000000001,-29.19153 0.351179,-30.01711 c0.477546,-1.7268400000000002 2.143229,-2.9687 3.9818350000000002,-2.9687 c1.13065,0 1.65232,0.22683000000000003 2.6650430000000003,1.1588 l1.259202,1.1588 l0.09016000000000003,27.27891 l0.09016000000000003,27.27891 h15.511909 c16.819255,0 17.130244,0.031400000000000004 18.312373,1.84315 c0.912473,1.3985500000000002 1.045169,2.96524 0.37184300000000003,4.39022 c-1.087317,2.30111 -0.43308300000000005,2.23276 -21.12821,2.20732 c-12.575082,-0.015500000000000003 -18.886666,-0.14151000000000002 -19.393895,-0.3873400000000001 zm52.969931,-0.7407900000000002 l-1.146166,-1.15106 v-20.37888 c0,-20.00264 0.012740000000000003,-20.39687 0.6911490000000002,-21.353650000000002 c1.5271379999999999,-2.15379 5.399599,-2.08086 6.740084,0.12693000000000002 c0.6316830000000001,1.04041 0.6568820000000001,1.8576100000000002 0.6580910000000002,21.34369 l0.0014000000000000004,20.261870000000002 l-1.146167,1.15106 c-1.009593,1.01389 -1.355041,1.1510500000000001 -2.899126,1.1510500000000001 c-1.544085,0 -1.8895330000000001,-0.13716 -2.899127,-1.1510500000000001 zm30.338439,0.6709200000000002 c-2.85086,-0.8960800000000001 -5.77831,-3.58637 -7.0285,-6.45909 c-1.805354,-4.14838 -1.864544,-5.13878 -1.8673440000000001,-31.24252 c-0.003000000000000001,-26.07557 -0.03960000000000001,-25.57983 1.976814,-26.62699 c1.6388500000000001,-0.8511000000000001 3.42566,-0.6834700000000001 4.77552,0.44803000000000004 l1.16715,0.9783299999999999 l0.16855000000000003,25.34348 c0.15797000000000003,23.75212 0.20793000000000003,25.43391 0.7956000000000001,26.783549999999998 c0.98198,2.25524 2.25015,3.13003 4.53972,3.13154 c2.21394,0.0010000000000000002 3.93386,0.86021 4.44921,2.22147 c0.8674000000000001,2.29115 -0.05120000000000001,4.51483 -2.24538,5.43554 c-1.3733,0.5762400000000001 -4.87769,0.5693 -6.73134,-0.013300000000000003 zm20.35637,-0.28329 c-0.50403,-0.41802000000000006 -1.0728900000000001,-1.1889 -1.26416,-1.71307 c-0.22403000000000003,-0.6139000000000001 -0.34732000000000013,-7.90208 -0.3465100000000001,-20.48192 c0.0010000000000000002,-18.7719 0.026800000000000004,-19.5709 0.6593100000000001,-20.61273 c1.57176,-2.58875 4.80264,-2.7935499999999998 6.92515,-0.4389700000000001 c0.6538200000000002,0.7253200000000001 0.6764000000000001,1.30514 0.7758700000000001,19.92413 c0.05630000000000001,10.5474 0.005000000000000001,19.85219 -0.11416000000000003,20.67733 c-0.32103000000000004,2.22406 -1.70722,3.40917 -3.985,3.4069700000000003 c-1.29871,-0.0010000000000000002 -1.96428,-0.19253000000000003 -2.65056,-0.7617400000000002 zM55.314890872924806,11.12452634033204 c-1.935704,-1.3342100000000001 -2.559306,-2.46121 -2.559306,-4.62532 c0,-2.40517 0.9715619999999998,-3.91812 3.132531,-4.8781 c1.8739810000000001,-0.83248 3.768749,-0.6056900000000002 5.403911,0.6468400000000002 c3.936204,3.01507 1.987448,9.09899 -3.04446,9.50465 c-1.465404,0.11811000000000002 -1.988862,0.003000000000000001 -2.932676,-0.6480700000000001 zm50.541877,0.15787 c-0.6452400000000001,-0.33616000000000007 -1.53079,-1.1444 -1.9679000000000002,-1.79611 c-0.6732400000000002,-1.00375 -0.77493,-1.50804 -0.6651100000000001,-3.29839 c0.11416000000000003,-1.86192 0.26705,-2.25589 1.2841200000000002,-3.3097 c2.05378,-2.12799 4.98452,-2.38349 7.07519,-0.6168100000000001 c3.89493,3.29135 2.14756,9.1374 -2.84126,9.5058 c-1.19329,0.08820000000000003 -2.0672800000000002,-0.05870000000000001 -2.88504,-0.48479 z" style="opacity:1;fill:#4e4c84;fill-opacity:1;stroke-width:1"/>
  </g></g></svg>